<?xml version="1.0" encoding="iso-8859-1"?>
<!-- Generator: Adobe Illustrator 18.0.0, SVG Export Plug-In . SVG Version: 6.00 Build 0)  -->
<!DOCTYPE svg PUBLIC "-//W3C//DTD SVG 1.1//EN" "http://www.w3.org/Graphics/SVG/1.1/DTD/svg11.dtd">
<svg version="1.1" id="Capa_1" fill="#FFFF" xmlns="http://www.w3.org/2000/svg" xmlns:xlink="http://www.w3.org/1999/xlink" x="0px" y="0px"
	 viewBox="0 0 476.609 476.609" style="enable-background:new 0 0 476.609 476.609;" xml:space="preserve">
<path id="XMLID_294_" d="M443.37,240.935l-47.666-36.554c-6.05-4.608-14.63-3.487-19.264,2.54
	c-4.441,5.787-3.423,13.906,2.006,18.634c-13.404,15.857-28.322,30.09-44.721,42.51c-7.753-20.157-18.532-38.959-31.714-55.309
	V60.881c0-26.206-21.318-47.532-47.522-47.532h-2.039v-1.32C252.45,5.39,247.069,0,240.414,0H135.321
	c-6.654,0-12.034,5.39-12.034,12.028v1.32h-2.468c-26.205,0-47.522,21.326-47.522,47.532v151.858
	c-28.085,34.811-45.439,80.749-45.439,127.015c0,63.15,32.32,95.549,80.193,110.084c-2.165,2.817-3.678,6.186-3.678,10.022
	c0,9.25,7.499,16.75,16.747,16.75h133.082c9.25,0,16.749-7.5,16.749-16.75c0-3.836-1.513-7.204-3.679-10.029
	c17.02-5.175,32.112-12.569,44.436-22.863c21.508,1.027,43.16-8.094,57.25-26.5c6.671-8.699,10.857-18.476,12.736-28.529
	c7.275-39.093,22.783-76.34,45.342-109.009c2.42,1.736,5.191,2.643,7.961,2.643c4.123,0,8.215-1.853,10.922-5.38
	C450.535,254.173,449.389,245.552,443.37,240.935z M98.419,60.881c0-12.354,10.046-22.408,22.4-22.408h2.468v1.337
	c0,6.639,5.38,12.028,12.034,12.028h105.093c6.655,0,12.036-5.39,12.036-12.028v-1.337h2.039c12.354,0,22.399,10.055,22.399,22.408
	V186.98c-5.206-4.347-10.714-8.215-16.334-11.836c-0.538-2.689-1.222-5.323-2.041-7.896c-6.865-25.825-27.446-46.047-53.472-52.408
	c-0.316-9.349-7.987-16.841-17.389-16.841c-9.4,0-17.078,7.471-17.416,16.8c-27.6,6.674-49.114,28.925-54.695,56.936
	c-0.28,1.122-0.545,2.251-0.773,3.393c-5.635,3.629-11.128,7.498-16.35,11.853V60.881z M158.025,315.253
	c0,0,2.118,40.088,39.579,80.82c-27.83-2.093-71.039-11.239-87.277-47.26c-19.734-43.79-17.829-95.305-16.269-114.225
	c0.227-2.744,3.593-3.931,5.481-1.927c8.281,8.784,27.578,25.708,58.789,33.157c26.762,6.376,76.322,17.33,66.133,115.114
	c21.357,17.67,48.779,32.063,65.434,37.146c0.945,0.288,0.808,1.674-0.176,1.764C228.595,425.396,168.908,364.209,158.025,315.253z"
	/>
<g>
</g>
<g>
</g>
<g>
</g>
<g>
</g>
<g>
</g>
<g>
</g>
<g>
</g>
<g>
</g>
<g>
</g>
<g>
</g>
<g>
</g>
<g>
</g>
<g>
</g>
<g>
</g>
<g>
</g>
</svg>
